# xmcd
#
# Track frame offsets: 
#        150
#        18498
#        41757
#        56061
#        70129
#        93304
#        111417
#        126164
#        143133
#        161265
#        175935
#        189569
#
# Disc length: 2757 seconds
#
# Revision: 1
# Processed by: cddbd v1.5.2PL0 Copyright (c) Steve Scherf et al.
# Submitted via: ExactAudioCopy v1.0b3
#
DISCID=a70ac30c
DTITLE=Omar Kent Dykes and Jimmie Vaughan - On The Jimmy Reed Highway
DYEAR=2007
DGENRE=Blues
TTITLE0=Jimmy Reed Highway
TTITLE1=Baby What You Want Me To Do - Bright Lights Big City
TTITLE2=Big Boss Man
TTITLE3=Good Lover
TTITLE4=Caress Me Baby
TTITLE5=Aw Shucks, Hush Your Mouth
TTITLE6=You Upset My Mind
TTITLE7=I'll Change My Style
TTITLE8=Bad Boy
TTITLE9=Baby, What's Wrong
TTITLE10=Hush Hush
TTITLE11=You Made Me Laugh
EXTD=
EXTT0=
EXTT1=
EXTT2=
EXTT3=
EXTT4=
EXTT5=
EXTT6=
EXTT7=
EXTT8=
EXTT9=
EXTT10=
EXTT11=
PLAYORDER=
